<?xml version="1.0" encoding="UTF-8" standalone="no"?>
<!-- Created with Inkscape (http://www.inkscape.org/) -->

<svg
   width="18.25189mm"
   height="27.946161mm"
   viewBox="0 0 18.25189 27.946161"
   version="1.1"
   id="svg1"
   xml:space="preserve"
   inkscape:version="1.3 (0e150ed6c4, 2023-07-21)"
   sodipodi:docname="Book It.svg"
   xmlns:inkscape="http://www.inkscape.org/namespaces/inkscape"
   xmlns:sodipodi="http://sodipodi.sourceforge.net/DTD/sodipodi-0.dtd"
   xmlns="http://www.w3.org/2000/svg"
   xmlns:svg="http://www.w3.org/2000/svg"><sodipodi:namedview
     id="namedview1"
     pagecolor="#ffffff"
     bordercolor="#666666"
     borderopacity="1.0"
     inkscape:showpageshadow="2"
     inkscape:pageopacity="0.0"
     inkscape:pagecheckerboard="0"
     inkscape:deskcolor="#d1d1d1"
     inkscape:document-units="mm"
     showguides="false"
     inkscape:zoom="1.0242632"
     inkscape:cx="-2471.0446"
     inkscape:cy="2414.9066"
     inkscape:window-width="1920"
     inkscape:window-height="1009"
     inkscape:window-x="-8"
     inkscape:window-y="-8"
     inkscape:window-maximized="1"
     inkscape:current-layer="layer1"><sodipodi:guide
       position="296.94387,777.05708"
       orientation="0,-1"
       id="guide38"
       inkscape:locked="false" /><sodipodi:guide
       position="723.37562,795.36059"
       orientation="1,0"
       id="guide39"
       inkscape:locked="false" /><sodipodi:guide
       position="632.15836,795.36058"
       orientation="1,0"
       id="guide52"
       inkscape:locked="false" /><sodipodi:guide
       position="251.33526,731.44845"
       orientation="1,0"
       id="guide75"
       inkscape:locked="false" /><sodipodi:guide
       position="160.11799,731.44844"
       orientation="1,0"
       id="guide60"
       inkscape:locked="false" /><sodipodi:guide
       position="205.72666,685.83982"
       orientation="0,-1"
       id="guide61"
       inkscape:locked="false" /><sodipodi:guide
       position="342.5525,822.66571"
       orientation="1,0"
       id="guide62"
       inkscape:locked="false" /><sodipodi:guide
       position="191.63224,552.50197"
       orientation="0,-1"
       id="guide113"
       inkscape:locked="false" /><sodipodi:guide
       position="370.79161,369.80557"
       orientation="1,0"
       id="guide165"
       inkscape:locked="false" /></sodipodi:namedview><defs
     id="defs1" /><g
     inkscape:label="Capa 1"
     inkscape:groupmode="layer"
     id="layer1"
     transform="translate(483.65834,-640.02711)"><rect
       style="fill:none;stroke:#1cac84;stroke-width:1.81365;stroke-linecap:square;stroke-linejoin:miter;stroke-miterlimit:4;stroke-dasharray:none;stroke-opacity:1;paint-order:markers fill stroke"
       id="rect1566-0-0-5-9"
       width="16.337061"
       height="16.337061"
       x="-482.68054"
       y="640.9339"
       rx="0"
       ry="0" /><path
       style="fill:none;stroke:#0dab83;stroke-width:1.81063;stroke-linecap:butt;stroke-linejoin:miter;stroke-miterlimit:4;stroke-dasharray:none;stroke-opacity:1"
       d="m -478.18457,651.88171 h 9.08838 c 0,-4.66392 -1.85492,-8.07243 -8.49456,-8.07243 v 5.52834"
       id="path2490-3-8-0-4-4"
       sodipodi:nodetypes="cccc" /><circle
       style="fill:#10ac84;fill-opacity:1;stroke:none;stroke-width:5.47185;stroke-linecap:square;stroke-linejoin:miter;stroke-miterlimit:4;stroke-dasharray:none;stroke-opacity:1;paint-order:markers fill stroke"
       id="path3192-0-8-3-0-7"
       cx="-475.0657"
       cy="648.24121"
       r="1.0953751" /><path
       style="fill:none;stroke:#10ac84;stroke-width:1.81063;stroke-linecap:butt;stroke-linejoin:miter;stroke-miterlimit:4;stroke-dasharray:none;stroke-opacity:1"
       d="m -478.18457,651.8817 c 0,0 4.66926,0.49443 4.66926,4.50236"
       id="path3880-5-2-6-4" /><path
       style="fill:none;stroke:#10ac84;stroke-width:1.81063;stroke-linecap:butt;stroke-linejoin:miter;stroke-miterlimit:4;stroke-dasharray:none;stroke-opacity:1"
       d="m -479.41664,647.40927 c 0,0 -3.33637,1.00443 -3.33637,3.33623"
       id="path4014-1-9-8-5" /><path
       style="fill:none;stroke:#10ac84;stroke-width:1.81063;stroke-linecap:butt;stroke-linejoin:miter;stroke-miterlimit:4;stroke-dasharray:none;stroke-opacity:1"
       d="m -483.17091,651.8817 c 0,0 4.66925,0.49443 4.66925,4.50236"
       id="path4096-6-1-0-9" /><rect
       style="fill:#10ac84;fill-opacity:1;stroke:none;stroke-width:1.81063;stroke-linecap:square;stroke-linejoin:miter;stroke-miterlimit:4;stroke-dasharray:none;stroke-opacity:1;paint-order:markers fill stroke"
       id="rect4452-7-3-2-6"
       width="3.2361701"
       height="3.2361701"
       x="-469.57977"
       y="640.9339"
       rx="0.7655158"
       ry="0.7655158" /><text
       xml:space="preserve"
       style="font-style:normal;font-variant:normal;font-weight:bold;font-stretch:normal;font-size:6.11653px;line-height:1.25;font-family:'Open Sans';-inkscape-font-specification:'Open Sans Bold';fill:#10ac84;fill-opacity:1;stroke-width:0.152914"
       x="-483.57385"
       y="662.8233"
       id="text5581-6-5-9"><tspan
         sodipodi:role="line"
         id="tspan5579-9-0-7"
         style="font-style:normal;font-variant:normal;font-weight:bold;font-stretch:normal;font-family:'Open Sans';-inkscape-font-specification:'Open Sans Bold';fill:#10ac84;fill-opacity:1;stroke-width:0.152914"
         x="-483.57385"
         y="662.8233">gekko</tspan></text><g
       aria-label="media"
       id="text9863-2-3-7"
       style="font-weight:bold;font-size:3.89585px;line-height:1.25;font-family:'Open Sans';-inkscape-font-specification:'Open Sans Bold';fill:#63706d;fill-opacity:1;stroke-width:0.097396"
       transform="matrix(1.5113788,0,0,1.5113788,1124.804,44.537871)"><path
         d="m -1061.5328,410.26301 q 0.3691,0 0.5631,0.18833 0.1959,0.18832 0.1959,0.60302 v 1.40197 h -0.7437 v -1.1718 q 0,-0.24539 -0.067,-0.34051 -0.065,-0.097 -0.1941,-0.097 -0.1807,0 -0.2511,0.15789 -0.068,0.15789 -0.068,0.44703 v 1.0044 h -0.7457 v -1.1718 q 0,-0.15599 -0.029,-0.2511 -0.027,-0.097 -0.082,-0.14077 -0.055,-0.0456 -0.1388,-0.0456 -0.1275,0 -0.1998,0.078 -0.07,0.0761 -0.099,0.22447 -0.028,0.14838 -0.028,0.36333 v 0.94353 h -0.7438 v -2.15527 h 0.5612 l 0.1084,0.26631 h 0.021 q 0.057,-0.0875 0.1465,-0.15598 0.091,-0.0685 0.215,-0.10843 0.1255,-0.0399 0.2853,-0.0399 0.2378,0 0.3919,0.0799 0.154,0.0799 0.2511,0.22066 h 0.023 q 0.1027,-0.14457 0.2644,-0.22257 0.1617,-0.078 0.3633,-0.078 z"
         style="font-weight:800;-inkscape-font-specification:'Open Sans Ultra-Bold';fill:#63706d;fill-opacity:1"
         id="path17877-2-1-1" /><path
         d="m -1059.2976,410.26301 q 0.3139,0 0.5422,0.11033 0.2282,0.10843 0.3519,0.32719 0.1236,0.21876 0.1236,0.54786 v 0.33099 h -1.3297 q 0.01,0.1693 0.1256,0.27773 0.1179,0.10843 0.3462,0.10843 0.2016,0 0.369,-0.0399 0.1693,-0.0399 0.3482,-0.12365 v 0.53454 q -0.156,0.0818 -0.3406,0.11984 -0.1845,0.038 -0.466,0.038 -0.3253,0 -0.5821,-0.11603 -0.2568,-0.11604 -0.4052,-0.35953 -0.1465,-0.24349 -0.1465,-0.62585 0,-0.38806 0.1332,-0.63726 0.1332,-0.2511 0.3728,-0.37094 0.2397,-0.12175 0.5574,-0.12175 z m 0.027,0.50601 q -0.1312,0 -0.2206,0.0837 -0.087,0.0818 -0.1027,0.2587 h 0.6391 q 0,-0.0951 -0.038,-0.1731 -0.036,-0.078 -0.1066,-0.12365 -0.068,-0.0456 -0.1712,-0.0456 z"
         style="font-weight:800;-inkscape-font-specification:'Open Sans Ultra-Bold';fill:#63706d;fill-opacity:1"
         id="path17879-0-2-5" /><path
         d="m -1057.1899,412.49437 q -0.3329,0 -0.5478,-0.28343 -0.215,-0.28344 -0.215,-0.82939 0,-0.55166 0.2207,-0.8351 0.2206,-0.28344 0.5707,-0.28344 0.1445,0 0.2492,0.0419 0.1046,0.0418 0.1807,0.11414 0.078,0.0704 0.135,0.15979 h 0.015 q -0.013,-0.0818 -0.025,-0.22447 -0.011,-0.14457 -0.011,-0.28154 v -0.57638 h 0.7495 v 2.95993 h -0.5612 l -0.1598,-0.27203 h -0.028 q -0.051,0.0856 -0.1294,0.15599 -0.076,0.0704 -0.1864,0.11223 -0.1084,0.0419 -0.2568,0.0419 z m 0.3044,-0.5878 q 0.1788,0 0.2511,-0.11223 0.074,-0.11414 0.08,-0.34621 v -0.059 q 0,-0.25491 -0.072,-0.38997 -0.07,-0.13696 -0.2663,-0.13696 -0.1332,0 -0.2207,0.12935 -0.087,0.12936 -0.087,0.40138 0,0.26822 0.087,0.39187 0.089,0.12174 0.2283,0.12174 z"
         style="font-weight:800;-inkscape-font-specification:'Open Sans Ultra-Bold';fill:#63706d;fill-opacity:1"
         id="path17881-8-3-3" /><path
         d="m -1054.6066,410.30106 v 2.15527 h -0.7438 v -2.15527 z"
         style="font-weight:800;-inkscape-font-specification:'Open Sans Ultra-Bold';fill:#63706d;fill-opacity:1"
         id="path17883-7-0-9"
         sodipodi:nodetypes="ccccc" /><path
         d="m -1053.0353,410.26301 q 0.409,0 0.6391,0.20354 0.2302,0.20165 0.2302,0.57639 v 1.41339 h -0.5155 l -0.1427,-0.28534 h -0.015 q -0.091,0.11414 -0.1883,0.18642 -0.095,0.0704 -0.2188,0.10272 -0.1236,0.0342 -0.3024,0.0342 -0.1865,0 -0.3348,-0.0761 -0.1484,-0.0761 -0.234,-0.23017 -0.086,-0.15408 -0.086,-0.38997 0,-0.34621 0.2397,-0.51361 0.2397,-0.1674 0.6943,-0.18832 l 0.3595,-0.0114 v -0.0304 q 0,-0.14458 -0.072,-0.20545 -0.07,-0.0609 -0.1902,-0.0609 -0.1274,0 -0.2853,0.0456 -0.156,0.0437 -0.3139,0.11414 l -0.215,-0.49079 q 0.1865,-0.0951 0.4223,-0.14457 0.2359,-0.0495 0.5289,-0.0495 z m 0.1293,1.23077 -0.1712,0.008 q -0.2054,0.008 -0.2891,0.0723 -0.082,0.0628 -0.082,0.18071 0,0.11033 0.059,0.1636 0.059,0.0514 0.1559,0.0514 0.1351,0 0.2302,-0.0856 0.097,-0.0856 0.097,-0.22257 z"
         style="font-weight:800;-inkscape-font-specification:'Open Sans Ultra-Bold';fill:#63706d;fill-opacity:1"
         id="path17885-1-7-6" /></g></g></svg>
